<svg xmlns="http://www.w3.org/2000/svg" viewBox="0 0.004 147 146.995" overflow="visible"><g id="SvgjsG188788" transform="scale(.51597)" opacity="1"><path d="M54.746 7.149a1.98 1.98 0 11-3.96 0 1.98 1.98 0 013.96 0zm-8.41.243a1.98 1.98 0 11-3.96 0 1.98 1.98 0 013.96 0zm-8.201 1.879a1.98 1.98 0 11-3.96 0 1.98 1.98 0 013.96 0zm24.906-.721a1.98 1.98 0 11-3.96 0 1.98 1.98 0 013.96 0zm-32.583 4.165a1.98 1.98 0 11-3.96 0 1.98 1.98 0 013.96 0zM23.6 17.59a1.98 1.98 0 11-3.96 0 1.98 1.98 0 013.96 0zm-5.774 6.118a1.98 1.98 0 11-3.96 0 1.98 1.98 0 013.96 0zm76.522 20.816a1.98 1.98 0 11-3.96 0 1.98 1.98 0 013.96 0zm-23.444-32.98a1.98 1.98 0 11-3.96 0 1.98 1.98 0 013.96 0zm7.128 4.47a1.98 1.98 0 11-3.96 0 1.98 1.98 0 013.96 0zM93.19 61.23a1.98 1.98 0 11-3.96 0 1.98 1.98 0 013.96 0zM25.52 83.914a1.98 1.98 0 11-3.96 0 1.98 1.98 0 013.96 0zm66.949-47.591a1.98 1.98 0 11-3.96 0 1.98 1.98 0 013.96 0zm2.122 16.611a1.98 1.98 0 11-3.96 0 1.98 1.98 0 013.96 0zm-4.395 16.159a1.98 1.98 0 11-3.96 0 1.98 1.98 0 013.96 0zM19.4 78.14a1.98 1.98 0 11-3.96 0 1.98 1.98 0 013.96 0zm13.247 10.244a1.98 1.98 0 11-3.96 0 1.98 1.98 0 013.96 0zm56.379-59.737a1.98 1.98 0 11-3.96 0 1.98 1.98 0 013.96 0zM11.083 63.605a1.98 1.98 0 11-3.96 0 1.98 1.98 0 013.96 0zM84.15 21.79a1.98 1.98 0 11-3.96 0 1.98 1.98 0 013.96 0zm1.576 54.43a1.98 1.98 0 11-3.96 0 1.98 1.98 0 013.96 0zm-5.776 6.12a1.98 1.98 0 11-3.96 0 1.98 1.98 0 013.96 0zM14.526 71.282a1.98 1.98 0 11-3.96 0 1.98 1.98 0 013.96 0zM9.203 55.404a1.98 1.98 0 11-3.96 0 1.98 1.98 0 013.96 0zM48.806 92.78a1.98 1.98 0 11-3.96 0 1.98 1.98 0 013.96 0zm8.41-.243a1.98 1.98 0 11-3.96 0 1.98 1.98 0 013.96 0zM40.51 91.378a1.98 1.98 0 11-3.96 0 1.98 1.98 0 013.96 0zM8.96 46.994a1.98 1.98 0 11-3.96 0 1.98 1.98 0 013.96 0zm4.396-16.158a1.98 1.98 0 11-3.96 0 1.98 1.98 0 013.96 0zm-2.994 7.863a1.98 1.98 0 11-3.96 0 1.98 1.98 0 013.96 0zm62.731 48.515a1.98 1.98 0 11-3.96 0 1.98 1.98 0 013.96 0zm-7.676 3.443a1.98 1.98 0 11-3.96 0 1.98 1.98 0 013.96 0z" color="#000" transform="matrix(3.18 0 0 3.18 -15.9 -16.437)" id="SvgjsG188789" fill="#424242"/><path d="M3.18-30.68c.76-1.31 1.96-3.18 3.59-5.63 1.63-2.45 6.45-10.2 14.45-23.26 7.99-13.05 14.17-23.34 18.52-30.84-.87 9.68-2.42 22.63-4.65 38.84-2.23 16.21-3.35 26.38-3.35 30.52 0 7.07 1.69 12.59 5.06 16.56 3.37 3.97 9.68 7.16 18.93 9.55-1.52-3.59-2.28-10.31-2.28-20.16 0-9.84 1.79-27.06 5.38-51.65s5.39-39.03 5.39-43.33c0-4.3-.16-7.34-.49-9.14-.33-1.79-1.17-3.64-2.53-5.55-1.36-1.9-3.54-3.31-6.53-4.24-2.99-.92-5.79-1.47-8.4-1.63-2.61-.16-3.92-.3-3.92-.41-.76 14.04-14.42 40.69-40.96 79.97-1.31 1.85-2.29 3.32-2.94 4.4l-7.51-19.25c-11.42-30.03-19.09-48.39-23.01-55.08-3.92-6.69-9.46-10.04-16.65-10.04-5.65 0-10.49 1.42-14.52 4.24 3.48 3.27 6.8 7.46 9.96 12.57v.82c0 11.2-1.83 31.06-5.47 59.56-3.65 28.51-5.47 43.31-5.47 44.39 0 3.27 1.33 5.8 4 7.59 2.66 1.8 7.81 2.7 15.42 2.7-.43-5.66-.65-10.18-.65-13.55 0-13.82 1.47-31.17 4.41-52.06 1.41-10.66 2.28-17.46 2.61-20.4 3.48 8.05 10.66 26.06 21.54 54.02.76 1.85 4.41 2.77 10.93 2.77 2.18 0 5.23-.76 9.14-2.28z" transform="translate(142.45 205.446)" id="SvgjsG188790" fill="#202020"/></g></svg>